<?xml version="1.0" standalone="no"?>
<!DOCTYPE svg PUBLIC "-//W3C//DTD SVG 20010904//EN"
 "http://www.w3.org/TR/2001/REC-SVG-20010904/DTD/svg10.dtd">
<svg version="1.0" xmlns="http://www.w3.org/2000/svg"
 width="128.000000pt" height="128.000000pt" viewBox="0 0 128.000000 128.000000"
 preserveAspectRatio="xMidYMid meet">

<g transform="translate(0.000000,128.000000) scale(0.100000,-0.100000)"
fill="#000000" stroke="none">
<path d="M994 1036 c-79 -25 -170 -82 -241 -150 -40 -37 -70 -73 -67 -78 3 -5
34 19 69 53 78 77 149 121 238 150 52 17 75 20 100 12 32 -9 32 -9 31 -73 -1
-172 -86 -267 -264 -299 -84 -15 -97 -37 -16 -27 30 3 62 9 72 13 21 8 -52
-88 -136 -180 -69 -74 -90 -74 -55 1 25 54 33 102 16 102 -13 0 -89 -85 -159
-177 -35 -46 -66 -83 -69 -83 -11 0 8 65 39 132 17 38 28 71 25 74 -9 9 -76
-47 -141 -117 l-57 -61 35 64 c19 34 60 108 90 163 30 55 53 101 51 103 -10
10 -29 -17 -82 -116 l-57 -107 -19 60 c-10 33 -21 81 -24 108 -3 26 -10 47
-16 47 -20 0 23 -209 45 -218 5 -2 -13 -42 -38 -88 -25 -47 -43 -88 -40 -92 4
-3 54 43 112 103 94 99 103 106 88 70 -9 -22 -20 -50 -25 -63 -12 -31 -11 -79
1 -87 16 -10 35 10 115 115 40 52 82 104 94 114 19 17 18 11 -10 -53 -25 -55
-30 -74 -20 -84 9 -9 16 -9 31 1 11 6 30 12 42 12 13 0 50 13 83 28 71 34 147
113 191 197 25 49 27 58 14 67 -12 8 -8 17 27 53 30 32 48 63 62 111 24 75 27
162 8 188 -17 23 -90 30 -143 12z m12 -425 c-37 -72 -119 -156 -181 -186 -30
-14 -57 -25 -60 -25 -4 0 20 30 52 68 33 37 79 92 102 122 43 55 61 68 94 69
16 1 15 -4 -7 -48z"/>
<path d="M316 888 c-24 -36 -72 -176 -111 -318 -19 -72 -44 -150 -55 -173 -21
-42 -25 -67 -12 -67 4 0 28 42 54 93 60 117 153 239 262 346 77 75 94 101 65
101 -5 0 -9 -3 -9 -8 0 -4 -44 -52 -98 -107 -54 -55 -122 -134 -152 -175 -29
-41 -50 -67 -47 -57 4 10 14 44 22 77 22 86 74 230 95 267 22 37 9 56 -14 21z"/>
<path d="M677 723 c-11 -10 -8 -43 3 -43 6 0 10 11 10 25 0 26 -2 29 -13 18z"/>
</g>
</svg>
