<?xml version="1.0" standalone="no"?>
<!DOCTYPE svg PUBLIC "-//W3C//DTD SVG 20010904//EN"
 "http://www.w3.org/TR/2001/REC-SVG-20010904/DTD/svg10.dtd">
<svg version="1.0" xmlns="http://www.w3.org/2000/svg"
 width="197.000000pt" height="79.000000pt" viewBox="0 0 197.000000 79.000000"
 preserveAspectRatio="xMidYMid meet">

<g transform="translate(0.000000,79.000000) scale(0.100000,-0.100000)"
fill="#000000" stroke="none">
<path d="M1190 722 c-129 -37 -340 -159 -340 -198 0 -25 30 -28 60 -5 16 11
36 21 44 21 8 0 25 11 38 25 27 28 155 90 219 104 72 17 140 13 177 -9 62 -38
35 -81 -85 -137 -56 -26 -82 -33 -104 -28 -22 5 -34 2 -47 -13 -9 -10 -38 -27
-64 -36 -62 -23 -102 -60 -94 -89 4 -17 -3 -27 -30 -45 -52 -34 -90 -39 -103
-13 -18 32 -55 26 -103 -16 -23 -21 -39 -33 -35 -26 4 6 2 24 -3 39 -10 26 -8
31 35 67 49 42 60 77 23 77 -14 0 -50 -26 -93 -66 -38 -36 -96 -88 -128 -117
-41 -36 -57 -57 -55 -71 5 -34 32 -29 100 18 l65 44 -7 -33 c-8 -36 3 -65 26
-65 9 0 41 25 73 55 60 57 81 59 81 8 0 -30 40 -46 101 -40 44 4 181 72 232
115 23 20 22 51 -5 79 -29 31 -16 43 77 73 164 53 245 121 231 193 -6 34 -33
65 -74 86 -41 21 -142 23 -212 3z m-65 -391 c6 -11 -146 -97 -190 -106 -22 -5
-16 0 20 18 28 14 68 41 90 61 40 35 68 45 80 27z"/>
<path d="M454 622 c-29 -24 -76 -102 -122 -202 -21 -47 -46 -91 -54 -98 -14
-11 -16 -49 -9 -114 3 -25 53 2 134 72 l92 81 8 -33 c11 -42 25 -58 48 -58 27
0 27 11 3 87 l-13 42 77 59 c42 33 86 69 96 81 18 20 19 23 3 38 -16 16 -18
16 -41 -2 -14 -11 -62 -48 -108 -83 -46 -35 -111 -89 -146 -120 -75 -67 -87
-74 -67 -35 8 15 30 62 49 103 19 42 53 97 76 123 35 39 40 50 30 62 -16 19
-30 19 -56 -3z"/>
</g>
</svg>
