<svg xmlns="http://www.w3.org/2000/svg" viewBox="0 0 538.89 403.4"><defs><style>.cls-1{fill:#e1251b;}</style></defs><g id="Calque_2" data-name="Calque 2"><g id="Calque_1-2" data-name="Calque 1"><path class="cls-1" d="M396.64,305.57H302.88v28.7h65.06l.07,1.5c-8.76,25-28.85,39.38-60.54,39.38-36.62,0-64.23-29.34-64.23-66.46,0-38.59,28.75-69.05,66.87-69.05,29.22,0,50,14.34,61.85,40l26.89-12.4c-16.62-36-48.13-55.81-88.74-55.81-54.1,0-96.47,42.74-96.47,97.3,0,53.11,41.21,94.71,93.83,94.71,27.46,0,48.19-11.08,63.17-28.37l2.7,21.61h23.3V308.29l.15-.89h-.15Z"/><polygon class="cls-1" points="396.64 150.29 248.36 150.29 248.36 102.96 379.56 102.96 379.56 75.52 248.36 75.52 248.36 28.2 396.64 28.2 396.64 0 218.15 0 218.15 178.49 396.64 178.49 396.64 150.29"/><polygon class="cls-1" points="148.03 73.76 30.21 73.76 30.21 0 0 0 0 178.49 30.21 178.49 30.21 102.21 148.03 102.21 148.03 178.49 178.49 178.49 178.49 0 148.03 0 148.03 73.76"/><polygon class="cls-1" points="104.35 368.19 104.35 246.6 178.49 246.6 178.49 218.15 0 218.15 0 246.6 74.14 246.6 74.14 368.19 0 368.19 0 396.64 178.49 396.64 178.49 368.19 104.35 368.19"/><path class="cls-1" d="M473.29,0h12.09L466.74,51H455L436.3,0h12.53l12.3,35.9Z"/><path class="cls-1" d="M494.79,51V0h18.49c15.33,0,25.61,9.79,25.61,25.55S528.61,51,513.21,51Zm18-10.72c7.85,0,14.26-4.54,14.26-14.75s-6.41-14.83-14.26-14.83h-6.61V40.3Z"/></g></g></svg>